<svg id="Layer_1" height="512" viewBox="0 0 512 512" width="512" xmlns="http://www.w3.org/2000/svg"><g><path d="m2 344.9c0 56.1 45.5 101.6 101.6 101.6s101.6-45.5 101.6-101.6-45.5-101.6-101.6-101.6c-16.8 0-32.3 4.4-46.3 11.6 18-79.2 88.9-138.6 173.5-138.6 14 0 25.4-11.4 25.4-25.4s-11.4-25.4-25.4-25.4c-126.2 0-228.8 102.6-228.8 228.8z"/><path d="m255.8 344.9c0 56.1 45.5 101.6 101.6 101.6s101.6-45.5 101.6-101.6-45.5-101.6-101.6-101.6c-16.8 0-32.3 4.4-46.3 11.6 18-79.2 88.9-138.6 173.5-138.6 14 0 25.4-11.4 25.4-25.4s-11.4-25.4-25.4-25.4c-126.2 0-228.8 102.6-228.8 228.8z"/></g></svg>