<?xml version="1.0" encoding="utf-8"?>
<!-- Generator: Adobe Illustrator 28.2.0, SVG Export Plug-In . SVG Version: 6.00 Build 0)  -->
<svg version="1.1" id="Capa_1" xmlns="http://www.w3.org/2000/svg" xmlns:xlink="http://www.w3.org/1999/xlink" x="0px" y="0px"
	 viewBox="0 0 512 512" style="enable-background:new 0 0 512 512;" xml:space="preserve">
<style type="text/css">
	.st0{fill:url(#SVGID_1_);}
	.st1{fill:url(#SVGID_00000177478979761859089670000005319900802126044811_);}
	.st2{fill:url(#SVGID_00000049211207242459955100000012469894151283421569_);}
	.st3{fill:url(#SVGID_00000023964332686779526710000016277230350954829486_);}
	.st4{fill:url(#SVGID_00000018936864637910082190000011185602086861924267_);}
	.st5{fill:url(#SVGID_00000178886154759880935780000012235314132008989882_);}
	.st6{fill:url(#SVGID_00000072261542182061645830000002271479863789548718_);}
	.st7{fill:url(#SVGID_00000145758900769162039890000002494599301821569199_);}
	.st8{fill:url(#SVGID_00000000918959111639887840000011811806467193963142_);}
	.st9{fill:url(#SVGID_00000138568793275825206470000011618739836463181708_);}
	.st10{fill:url(#SVGID_00000137818514848439963980000014643808580364135603_);}
</style>
<g id="Calque_2">
	<g id="Calque_18">
	</g>
	<g id="Calque_17">
	</g>
	<g id="Calque_16">
	</g>
	<g id="Calque_15">
	</g>
	<g id="Calque_14">
	</g>
	<g id="Calque_13">
		
			<linearGradient id="SVGID_1_" gradientUnits="userSpaceOnUse" x1="82.0814" y1="-256.1024" x2="582.1204" y2="243.9366" gradientTransform="matrix(1 0 0 -1 -1.419425e-03 513.9956)">
			<stop  offset="0" style="stop-color:#FD3A84"/>
			<stop  offset="1" style="stop-color:#FFA68D"/>
		</linearGradient>
		<path class="st0" d="M508.2,431.39c-18.36-22.59-43.04-38.27-71.39-45.34c-28.33-7.06-57.49-4.82-84.32,6.48
			c-8.63,3.64-12.68,13.58-9.05,22.21c3.63,8.63,13.58,12.69,22.21,9.05c40.66-17.12,88.45-5.2,116.23,28.99
			c5.91,7.27,16.59,8.38,23.86,2.47C513,449.35,514.11,438.66,508.2,431.39L508.2,431.39z"/>
	</g>
	<g id="Calque_12">
		
			<linearGradient id="SVGID_00000034793500948280573930000004594153370592142730_" gradientUnits="userSpaceOnUse" x1="-223.3981" y1="49.3771" x2="276.6408" y2="549.4161" gradientTransform="matrix(1 0 0 -1 -1.419425e-03 513.9956)">
			<stop  offset="0" style="stop-color:#FD3A84"/>
			<stop  offset="1" style="stop-color:#FFA68D"/>
		</linearGradient>
		<path style="fill:url(#SVGID_00000034793500948280573930000004594153370592142730_);" d="M76.14,82.18
			c34.34,27.9,46.26,76.05,28.99,117.08c-3.64,8.63,0.42,18.58,9.05,22.21c8.67,3.65,18.59-0.45,22.21-9.05
			c23.09-54.84,7.11-119.22-38.86-156.57c-7.27-5.91-17.95-4.8-23.86,2.47C67.76,65.59,68.87,76.27,76.14,82.18z"/>
	</g>
	<g id="Calque_11">
		
			<linearGradient id="SVGID_00000176029922358080042370000008433167425361714597_" gradientUnits="userSpaceOnUse" x1="-130.1105" y1="-43.9105" x2="369.9284" y2="456.1285" gradientTransform="matrix(1 0 0 -1 -1.419425e-03 513.9956)">
			<stop  offset="0" style="stop-color:#FD3A84"/>
			<stop  offset="1" style="stop-color:#FFA68D"/>
		</linearGradient>
		<path style="fill:url(#SVGID_00000176029922358080042370000008433167425361714597_);" d="M211.57,286.63
			c7.15,6.05,17.85,5.16,23.91-1.99c25.2-29.79,44.27-63.91,56.68-101.43c12.35-37.36,17.45-76.11,15.15-115.19
			c-0.55-9.35-8.57-16.48-17.93-15.94c-9.35,0.55-16.49,8.58-15.94,17.93c4.1,69.67-19.18,139.91-63.86,192.72
			C203.52,269.88,204.42,280.58,211.57,286.63z"/>
	</g>
	<g id="Calque_10">
		
			<linearGradient id="SVGID_00000107551108597118986070000001234465174286502321_" gradientUnits="userSpaceOnUse" x1="-5.7166" y1="-168.3044" x2="494.3224" y2="331.7346" gradientTransform="matrix(1 0 0 -1 -1.419425e-03 513.9956)">
			<stop  offset="0" style="stop-color:#FD3A84"/>
			<stop  offset="1" style="stop-color:#FFA68D"/>
		</linearGradient>
		<path style="fill:url(#SVGID_00000107551108597118986070000001234465174286502321_);" d="M492,256.45
			c9.21,1.67,18.05-4.44,19.72-13.65c1.68-9.22-4.44-18.05-13.65-19.72c-90.36-16.43-182.02,29.16-222.87,110.87
			c-4.19,8.38-0.79,18.57,7.59,22.76c8.39,4.2,18.57,0.78,22.76-7.59C339.69,280.8,416.37,242.69,492,256.45L492,256.45z"/>
	</g>
	<g id="Calque_9">
		
			<linearGradient id="SVGID_00000036965400210673982200000012333888458088161683_" gradientUnits="userSpaceOnUse" x1="-248.5588" y1="74.5378" x2="251.4801" y2="574.5768" gradientTransform="matrix(1 0 0 -1 -1.419425e-03 513.9956)">
			<stop  offset="0" style="stop-color:#FD3A84"/>
			<stop  offset="1" style="stop-color:#FFA68D"/>
		</linearGradient>
		<circle style="fill:url(#SVGID_00000036965400210673982200000012333888458088161683_);" cx="18.99" cy="171.91" r="16.96"/>
	</g>
	<g id="Calque_8">
		
			<linearGradient id="SVGID_00000008849515674458732100000015976962214075755931_" gradientUnits="userSpaceOnUse" x1="-197.6744" y1="23.6534" x2="302.3646" y2="523.6924" gradientTransform="matrix(1 0 0 -1 -1.419425e-03 513.9956)">
			<stop  offset="0" style="stop-color:#FD3A84"/>
			<stop  offset="1" style="stop-color:#FFA68D"/>
		</linearGradient>
		<circle style="fill:url(#SVGID_00000008849515674458732100000015976962214075755931_);" cx="188.6" cy="104.07" r="16.96"/>
	</g>
	<g id="Calque_7">
		
			<linearGradient id="SVGID_00000076590542732070578780000003348535125249969302_" gradientUnits="userSpaceOnUse" x1="22.8248" y1="-196.8458" x2="522.8638" y2="303.1932" gradientTransform="matrix(1 0 0 -1 -1.419425e-03 513.9956)">
			<stop  offset="0" style="stop-color:#FD3A84"/>
			<stop  offset="1" style="stop-color:#FFA68D"/>
		</linearGradient>
		<circle style="fill:url(#SVGID_00000076590542732070578780000003348535125249969302_);" cx="392.14" cy="341.53" r="16.96"/>
	</g>
	<g id="Calque_6">
		
			<linearGradient id="SVGID_00000069398761239190538840000004525497389237741712_" gradientUnits="userSpaceOnUse" x1="39.7863" y1="-213.8073" x2="539.8252" y2="286.2318" gradientTransform="matrix(1 0 0 -1 -1.419425e-03 513.9956)">
			<stop  offset="0" style="stop-color:#FD3A84"/>
			<stop  offset="1" style="stop-color:#FFA68D"/>
		</linearGradient>
		<circle style="fill:url(#SVGID_00000069398761239190538840000004525497389237741712_);" cx="459.98" cy="307.6" r="16.96"/>
	</g>
	<g id="Calque_5">
		
			<linearGradient id="SVGID_00000103238565646316416970000000176330961979376802_" gradientUnits="userSpaceOnUse" x1="-146.79" y1="-27.2311" x2="353.249" y2="472.808" gradientTransform="matrix(1 0 0 -1 -1.419425e-03 513.9956)">
			<stop  offset="0" style="stop-color:#FD3A84"/>
			<stop  offset="1" style="stop-color:#FFA68D"/>
		</linearGradient>
		<circle style="fill:url(#SVGID_00000103238565646316416970000000176330961979376802_);" cx="188.6" cy="205.84" r="16.96"/>
	</g>
	<g id="Calque_4">
		
			<linearGradient id="SVGID_00000067941592233172391030000004417722240695082144_" gradientUnits="userSpaceOnUse" x1="-95.9055" y1="-78.1155" x2="404.1334" y2="421.9236" gradientTransform="matrix(1 0 0 -1 -1.419425e-03 513.9956)">
			<stop  offset="0" style="stop-color:#FD3A84"/>
			<stop  offset="1" style="stop-color:#FFA68D"/>
		</linearGradient>
		<circle style="fill:url(#SVGID_00000067941592233172391030000004417722240695082144_);" cx="392.14" cy="104.07" r="16.96"/>
	</g>
	<g id="Calque_3">
		
			<linearGradient id="SVGID_00000165926499947192688560000006335856261637730720_" gradientUnits="userSpaceOnUse" x1="-78.9441" y1="-95.077" x2="421.0949" y2="404.9621" gradientTransform="matrix(1 0 0 -1 -1.419425e-03 513.9956)">
			<stop  offset="0" style="stop-color:#FD3A84"/>
			<stop  offset="1" style="stop-color:#FFA68D"/>
		</linearGradient>
		<circle style="fill:url(#SVGID_00000165926499947192688560000006335856261637730720_);" cx="358.21" cy="171.91" r="16.96"/>
	</g>
</g>
</svg>
