<?xml version="1.0" standalone="no"?>
<!DOCTYPE svg PUBLIC "-//W3C//DTD SVG 20010904//EN"
 "http://www.w3.org/TR/2001/REC-SVG-20010904/DTD/svg10.dtd">
<svg version="1.0" xmlns="http://www.w3.org/2000/svg"
 width="700.000000pt" height="700.000000pt" viewBox="0 0 700.000000 700.000000"
 preserveAspectRatio="xMidYMid meet">
<metadata>
Created by potrace 1.14, written by Peter Selinger 2001-2017
</metadata>
<g transform="translate(0.000000,700.000000) scale(0.100000,-0.100000)"
fill="#000000" stroke="none">
<path d="M4630 6383 c-119 -30 -337 -149 -505 -276 -419 -316 -929 -951 -1325
-1652 -57 -100 -172 -309 -222 -405 -74 -140 -92 -170 -99 -170 -12 0 -39 80
-39 114 0 18 4 56 10 84 5 28 12 73 15 99 4 26 8 59 11 73 2 14 11 68 20 120
8 52 17 106 19 120 24 146 75 461 115 705 27 165 52 325 55 355 4 30 9 64 11
75 3 11 7 81 11 156 5 122 3 144 -16 207 -24 78 -74 161 -129 210 -44 39 -163
99 -212 107 -19 3 -49 10 -65 14 -35 9 -209 7 -270 -4 -429 -76 -818 -398
-951 -788 -14 -39 -27 -87 -30 -106 -3 -18 -8 -43 -10 -55 -7 -32 -6 -170 2
-203 37 -165 126 -280 268 -347 122 -58 178 -70 311 -69 137 1 227 20 349 77
62 28 79 41 93 70 16 34 16 38 1 53 -15 15 -21 14 -70 -10 -29 -15 -62 -40
-73 -57 -33 -50 -174 -92 -309 -92 -219 0 -426 134 -492 317 -28 79 -28 258 0
350 2 6 6 24 11 40 15 57 97 210 153 285 171 229 448 415 691 466 66 13 218
13 269 0 200 -53 316 -246 307 -509 -4 -124 -45 -252 -119 -377 -13 -22 -55
-98 -209 -380 -178 -327 -422 -750 -485 -840 -219 -314 -519 -522 -800 -556
-181 -22 -387 15 -497 89 -137 92 -206 244 -207 457 -1 161 44 294 144 427 68
91 141 149 209 167 30 7 63 12 74 10 11 -2 52 -7 90 -10 60 -6 73 -4 94 13 19
15 23 26 18 46 -10 38 -63 53 -136 37 -288 -61 -483 -222 -594 -490 -68 -163
-69 -345 -1 -481 163 -329 696 -435 1139 -225 133 63 234 135 346 247 120 120
205 246 408 604 85 149 190 333 234 410 44 77 94 165 111 195 116 209 140 250
148 250 12 0 11 -8 -27 -178 -20 -86 -37 -166 -40 -177 -2 -11 -22 -101 -43
-201 -22 -99 -43 -193 -46 -210 -3 -16 -7 -40 -10 -54 -4 -22 -17 -96 -31
-180 -18 -104 -23 -290 -11 -425 2 -33 8 -98 12 -145 3 -47 13 -97 20 -111 28
-56 110 -40 157 29 14 20 64 114 112 207 157 305 204 390 335 620 299 525 613
966 899 1264 43 45 44 45 37 16 -4 -16 -60 -109 -125 -205 -339 -503 -492
-815 -621 -1270 -81 -287 -122 -565 -123 -840 0 -105 10 -300 19 -342 2 -13 7
-43 10 -68 28 -215 125 -427 256 -560 137 -139 296 -220 548 -279 47 -11 130
-36 185 -56 134 -49 304 -98 337 -97 14 0 45 9 68 20 l42 19 -49 21 c-27 12
-80 26 -117 32 -191 30 -328 139 -387 305 -45 130 -29 346 37 501 61 141 135
234 269 339 280 218 610 337 940 338 71 0 200 -9 245 -18 14 -3 41 -8 60 -11
106 -19 262 -67 367 -114 341 -154 461 -521 291 -890 -73 -159 -241 -320 -443
-424 -65 -33 -142 -56 -176 -51 -8 1 -34 5 -59 8 -49 6 -138 35 -188 61 -51
26 -51 33 -6 329 59 383 75 466 115 582 31 90 85 193 135 258 54 69 69 104 54
122 -8 10 -21 7 -59 -14 -99 -54 -233 -249 -326 -474 -35 -86 -109 -329 -120
-397 -3 -19 -8 -42 -10 -50 -2 -8 -15 -79 -29 -156 -13 -78 -30 -152 -38 -164
-7 -12 -38 -35 -69 -50 -58 -30 -104 -75 -121 -119 -9 -24 -4 -31 55 -86 90
-84 107 -114 95 -173 -58 -308 -117 -467 -245 -661 -106 -159 -235 -275 -371
-331 -78 -33 -107 -39 -223 -47 -234 -15 -420 101 -489 307 -41 121 -25 227
59 401 37 77 47 107 39 116 -9 11 -17 10 -42 -6 -66 -41 -126 -163 -150 -303
-49 -294 99 -512 399 -588 289 -74 576 33 839 312 195 206 318 450 382 758 27
127 45 159 95 176 87 29 108 34 141 34 47 0 65 -20 176 -195 141 -224 487
-739 567 -845 145 -192 257 -270 448 -315 94 -22 288 -14 360 14 40 16 57 28
57 41 0 23 -16 29 -76 24 -27 -1 -80 -5 -119 -8 -144 -9 -267 36 -371 138 -62
61 -177 231 -453 671 -62 99 -164 261 -227 360 l-114 180 37 14 c70 27 348
169 413 212 80 51 195 165 242 239 39 62 82 163 97 229 5 23 9 83 9 133 0 209
-98 398 -285 548 -180 145 -389 233 -648 274 -91 15 -488 15 -565 1 -284 -52
-426 -100 -597 -201 -211 -124 -405 -328 -493 -516 -50 -106 -69 -198 -66
-323 2 -97 7 -123 39 -215 20 -58 32 -109 28 -113 -13 -13 -137 21 -216 59
-128 61 -240 168 -290 279 -44 97 -100 280 -120 390 -27 157 -28 542 -1 755
14 114 25 186 31 220 11 54 15 76 21 105 42 232 172 625 294 890 205 446 411
759 666 1011 229 226 373 269 579 172 33 -15 73 -28 88 -28 43 0 83 25 101 65
22 46 13 88 -22 114 -58 41 -210 52 -322 24z"/>
</g>
</svg>
