<?xml version="1.0" encoding="utf-8"?>
<!-- Generator: Adobe Illustrator 28.2.0, SVG Export Plug-In . SVG Version: 6.00 Build 0)  -->
<svg version="1.1" id="Calque_1" xmlns="http://www.w3.org/2000/svg" xmlns:xlink="http://www.w3.org/1999/xlink" x="0px" y="0px"
	 viewBox="0 0 1000 1000" style="enable-background:new 0 0 1000 1000;" xml:space="preserve">
<path fill="#fff" d="M356.76,237.81c-15.13,26.73-30.2,53.49-45.4,80.18c-16.56,29.07-32.69,58.42-50,87.04
	c-32.21,53.27-77.43,87.69-141.25,92.66c-13.15,1.03-26.93-0.08-39.84-2.89C15.85,480.77-8.41,427.44,22.4,368.83
	c17.9-34.06,47.49-51.79,84.25-58.68c4.29-0.8,9.71,1.32,13.68,3.65c1.37,0.8,0.96,8.76-0.39,9.33c-4.62,1.97-10.58,3.96-15.02,2.63
	c-17.33-5.22-31.73-0.68-43.76,11.63c-27.93,28.59-36.11,63.27-26.65,101.22c6.55,26.26,26.16,41.4,52.17,47.3
	c44.71,10.15,84.36-3.42,117.92-31.67c19.3-16.24,36.69-36.54,49.65-58.19c33.57-56.06,64.49-113.72,95.88-171.05
	c13.44-24.54,15.95-50.91,7.82-77.83c-7.82-25.92-26.62-40.2-53.37-41.31c-66.06-2.75-144.52,66.32-150.09,131.91
	c-2.32,27.32,5.46,50.14,29.37,65.2c26.42,16.64,54.54,16.79,82.84,5.38c4.18-1.69,6.36-7.83,10.29-10.82
	c3.71-2.82,8.4-4.61,12.93-5.91c1.05-0.3,4.93,4.04,4.54,4.9c-1.76,3.89-3.76,8.9-7.15,10.62c-36.01,18.33-72.92,22.51-109.12,1.59
	c-27.22-15.73-38.19-48.94-30.35-84.26c16.11-72.56,96.49-132.91,170.61-128.08c41.56,2.71,70.94,30.16,68.88,71.9
	c-1.99,40.3-10.55,80.31-16.77,120.37c-7.09,45.68-14.98,91.23-21.98,136.92c-1.01,6.61,1.04,13.69,5.31,21.44
	c2.23-3.61,4.7-7.09,6.65-10.84c44.73-86.11,93.98-169.33,158.69-242.28c35.37-39.87,74.21-75.82,123.3-98.76
	c17.2-8.04,35.11-12.41,53.96-7.86c9.06,2.19,18.92,5.59,15.29,18.51c-2.84,10.11-14.85,14.77-25.31,8.68
	c-29.41-17.11-53.51-6.44-75.68,13.56c-43.19,38.96-73.05,87.48-98.19,139.23c-40.98,84.34-62.86,173.32-59.44,267.17
	c0.97,26.6,8.15,53.97,17.66,79.02c11.78,31.03,42.17,50.63,75.72,55.41c-0.11-1.99,0.32-4-0.37-5.5
	c-20.04-44.09-10.17-83.95,19.32-119.36c41.53-49.87,97.55-70.57,160.72-73.84c41.63-2.16,82.54,2.57,120.03,22.41
	c13.49,7.14,26.71,15.97,37.66,26.52c47.85,46.07,41.53,114.05-14.61,154.09c-15.74,11.23-34.15,18.75-51.5,27.67
	c-5.8,2.98-12.1,4.99-16.48,6.76c33.69,53.2,66.34,105.98,100.31,157.91c18.22,27.86,44.64,40.22,78.5,33.96
	c4.79-0.88,9.87-0.12,14.82-0.12c0.61,1.62,1.23,3.25,1.84,4.87c-5.58,2.42-10.95,6.13-16.77,7.04
	c-41.48,6.46-77.42-4.99-102.93-38.75c-24.16-31.97-45.54-66.05-67.88-99.38c-10.31-15.39-20.1-31.14-29.93-46.85
	c-4.9-7.84-10.55-11.96-20.41-8.25c-9.75,3.67-21.4,0.8-24.19,17.55c-8.95,53.81-31.66,101.26-74.35,136.81
	c-33.75,28.11-72.26,40.2-115.08,23.87c-57.47-21.92-53.27-85.73-29.14-118.79c2.32-3.18,6.66-4.9,10.06-7.29
	c1.16,0.92,2.31,1.85,3.47,2.77c-2.05,4.71-3.71,9.64-6.21,14.1c-14.39,25.71-18.64,52.05,0.12,76.88
	c18.83,24.92,46.11,29.49,75.14,24.27c25.53-4.59,45.03-19.8,60.93-39.52c26.62-33.04,39.82-71.75,45.33-113.22
	c0.53-4-4.64-9.27-8.06-13.16c-5.01-5.71-16.22-12.41-15.2-15.68c2.34-7.46,9.43-16.38,16.55-18.71
	c10.98-3.59,13.78-9.16,15.19-19.49c6.11-44.62,16.6-88.15,38.84-127.82c6.47-11.55,14.92-22.15,23.59-32.22
	c3.77-4.38,10.37-6.31,15.68-9.36c0.93,1.04,1.85,2.07,2.78,3.11c-1.18,3-1.64,6.63-3.64,8.89c-19.19,21.63-27.86,47.98-32.98,75.51
	c-5.26,28.32-8.65,56.99-13.45,85.41c-1.54,9.12,1.88,11.82,10.07,15.14c18.62,7.56,35.55,12.2,55.37,1.48
	c29.5-15.95,54.23-35.63,67.09-67.41c20.76-51.33,2.41-103.04-48.69-123.3c-80.48-31.91-157.9-22.87-227.29,30.69
	c-30.84,23.8-47.1,56.93-46.32,96.78c0.75,38.18,26.93,64.27,65.18,66.98c6.09,0.43,11.93,4.55,17.88,6.96
	c-6.3,1.93-13.18,6.52-18.79,5.29c-16.32-3.58-32.17-9.39-48.14-14.52c-6.27-2.01-12.19-5.59-18.57-6.69
	c-71.61-12.32-111.42-54.32-120.76-126.59c-9.32-72.14,2.22-141.61,26.09-209.42c20.34-57.8,51.85-109.68,87.26-159.33
	c3.86-5.41,7.65-10.86,9.22-18.75c-3.63,3.46-7.47,6.73-10.86,10.41c-57.36,62.19-100.9,133.88-141.8,207.3
	c-14.52,26.07-27.6,52.95-41.5,79.38c-2.35,4.48-4.74,9.45-8.47,12.59c-10.14,8.55-19.87,5.98-20.93-6.93
	c-2.27-27.53-5.88-55.79-2.1-82.79c6.32-45.22,17.96-89.69,27.4-134.47c1.13-5.35,2.44-10.65,3.67-15.97
	C358.41,238.46,357.59,238.14,356.76,237.81z"/>
</svg>
