<svg id="Layer_1" viewBox="0 0 100 100" xmlns="http://www.w3.org/2000/svg" data-name="Layer 1"><path d="m83.5 46.9a1.88 1.88 0 0 0 -2.17.14 1.79 1.79 0 0 0 -.56 2.09 1.58 1.58 0 0 1 -.09 1.29 1.69 1.69 0 0 0 1.58 2.47 2.1 2.1 0 0 0 1.6-.65 6 6 0 0 0 1-1.37 3.18 3.18 0 0 0 -1.36-3.97zm-.82 4.66c-.29.13-.62.2-.84-.09s-.1-.62.16-.88c.64-.64.63-.64.12-1.38a1.53 1.53 0 0 1 -.21-.4c-.07-.31-.09-.67.24-.81a1 1 0 0 1 .78 0 2.18 2.18 0 0 1 .95 1.61 2.59 2.59 0 0 1 -1.2 1.95zm-1.86 2.14a.74.74 0 0 1 -.59-.51 13.08 13.08 0 0 0 -.61-1.5 2.33 2.33 0 0 0 -2.89-1.25 1.4 1.4 0 0 0 -1 1.47c0 .18 0 .36.07.56-1.7 1.31-.92 3 .23 3.44a1.48 1.48 0 0 1 .97 1.09 2 2 0 0 0 3.34.93 1.2 1.2 0 0 1 1.05-.42 1.56 1.56 0 0 0 1.61-.83 1.74 1.74 0 0 0 -.42-2 3.34 3.34 0 0 0 -1.76-.98zm-3.35-2.16c.47 0 .79.25 1 .89a9.4 9.4 0 0 1 -1.12-.17c-.15 0-.26-.26-.38-.39.17-.11.32-.31.5-.33zm1.53 5.73a.93.93 0 0 1 -.94-.75 3.6 3.6 0 0 1 0-.57c.06-.72 0-.83-.8-.93a2 2 0 0 1 -.9-.33.76.76 0 0 1 -.26-.69.73.73 0 0 1 .52-.46c.45 0 .91.06 1.36.06 1.07 0 1.46.69 1.58 1.61a6.32 6.32 0 0 1 .09 1.22c-.03.57-.26.82-.65.84zm2.34-1a1.35 1.35 0 0 1 -.37-.06c0-.42-.08-.79-.14-1.34a5 5 0 0 1 .84.6.79.79 0 0 1 .18.59c-.01.14-.32.2-.51.25zm-5.71-6.8a6.13 6.13 0 0 0 -1.51-2.8 1.72 1.72 0 0 0 -2-.4 1.7 1.7 0 0 0 -1.04 1.73 10.75 10.75 0 0 0 .28 1.65 5.59 5.59 0 0 0 -.42.7 1.63 1.63 0 0 0 1.53 2.35 2.6 2.6 0 0 0 1.09-.29 4.4 4.4 0 0 0 2-2.25 1.11 1.11 0 0 0 .07-.65zm-1.94 1.25a3.39 3.39 0 0 1 -1 .69.67.67 0 0 1 -.59-.17c-.09-.14 0-.42.07-.62s.17-.19.26-.27c.58-.54.58-.67.15-1.36a1.59 1.59 0 0 1 -.31-.77 1.17 1.17 0 0 1 .34-.78c.29-.24.61 0 .77.27.38.6.69 1.24 1.06 1.9a7.67 7.67 0 0 1 -.75 1.15zm-32-2.89a.65.65 0 0 1 -.17 1c-.32.21-.68.08-1-.35-.17-.26-.3-.54-.46-.8a2.77 2.77 0 0 0 -4.06-1.12 11.77 11.77 0 0 0 -2.93 2.44l.28.25c2.2 1.72 4.41 3.43 6.61 5.16.39.31.47.67.25 1a.65.65 0 0 1 -1 .09 10 10 0 0 1 -1-.72c-1.77-1.4-3.53-2.82-5.32-4.19-1-.73-1-.68-1.95 0a16.46 16.46 0 0 1 -6.94 3.09 9 9 0 0 1 -6-1.12c-.95-.55-1.82-1.24-2.72-1.88a.67.67 0 0 1 -.26-.27c-.05-.21-.12-.51 0-.63a.77.77 0 0 1 .65-.21 2.11 2.11 0 0 1 .7.44 12.05 12.05 0 0 0 3.94 2.2 8.36 8.36 0 0 0 5.07-.16 17.41 17.41 0 0 0 4.77-2.46 5 5 0 0 0 .45-.42c-.33-.15-.57-.28-.82-.38a12.06 12.06 0 0 0 -8.94 0c-.79.3-1.54.71-2.3 1.06a4.67 4.67 0 0 1 -.56.26.58.58 0 0 1 -.73-.28c-.16-.3 0-.54.23-.74a.5.5 0 0 1 .12-.08c4.31-2.49 8.77-3.25 13.45-1.11a1.09 1.09 0 0 0 1.4-.2 26.61 26.61 0 0 1 2.7-2.16 4.32 4.32 0 0 1 3.14-.78 3.88 3.88 0 0 1 2.65 1.7 12.9 12.9 0 0 1 .75 1.41zm34.64-1a6.2 6.2 0 0 0 -.27.72 1.72 1.72 0 0 0 .56 1.88 1.64 1.64 0 0 0 1.94.13 3.2 3.2 0 0 0 1.44-2 1.22 1.22 0 0 1 .92-1 3.83 3.83 0 0 0 1.38-.66 6.07 6.07 0 0 0 1.26-1.41 1.52 1.52 0 0 0 0-1.81 1.74 1.74 0 0 0 -1.78-.63c-.43.07-.84.22-1.29.34a2 2 0 0 0 -2.06-.85c-.88.25-1.15 1-1.4 1.77a1.82 1.82 0 0 0 -1.88 1.35 1.88 1.88 0 0 0 1.18 2.23zm5.2-3.53a3 3 0 0 1 .94 0s.11.37 0 .52a2.37 2.37 0 0 1 -1.47 1.38v-1.3c0-.37.26-.5.53-.54zm-3.4 5.08c-.23.19-.55.28-.75 0a.8.8 0 0 1 -.07-.69c.3-.61.58-.85 1.49-.69a1.79 1.79 0 0 1 -.67 1.44zm-1.73-3.38a.71.71 0 0 1 .57-.35c.39 0 .86.31 1.14-.11s.12-.73.23-1.08.25-.58.44-.63.51.18.67.37a2.1 2.1 0 0 1 -.09 2.31.59.59 0 0 1 -.32.17c-.43.09-.86.16-1.37.25a5.36 5.36 0 0 1 -1-.31.68.68 0 0 1 -.27-.62zm-7.35 5.46a.63.63 0 0 1 -.51.75c-.89.25-1.78.51-2.68.7a29.17 29.17 0 0 1 -7.33.69 17.29 17.29 0 0 1 -2.59-.32 6.33 6.33 0 0 1 -3.11-1.6l-.61-.54c-.46.33-.91.62-1.33.94-1.46 1.1-2.89 2.22-4.37 3.29a17.53 17.53 0 0 1 -2.18 1.28 2.2 2.2 0 0 1 -.89.21.43.43 0 0 1 -.53-.42 1.68 1.68 0 0 1 .31-.63s0 0 .07 0a13.54 13.54 0 0 0 3.89-2.43l3.84-3a3.59 3.59 0 0 0 .31-.29 7.21 7.21 0 0 0 -3.34-2.65 3.37 3.37 0 0 0 -4 1.48c-.22.31-.37.68-.56 1a.57.57 0 0 1 -.7.32.56.56 0 0 1 -.37-.74 2 2 0 0 1 .07-.23 4.82 4.82 0 0 1 6-3 8.1 8.1 0 0 1 3.32 2.3l.7.76.92-.43a13.22 13.22 0 0 1 10.39-.54 9 9 0 0 1 1.26.58c.44.24.58.62.41.95s-.51.39-1 .22c-.24-.08-.46-.21-.7-.31a11.82 11.82 0 0 0 -10 .35l-.19.12a.7.7 0 0 0 -.12.15 3.1 3.1 0 0 0 1.57 1.15 11.81 11.81 0 0 0 2.6.6 28 28 0 0 0 9.67-1 7.54 7.54 0 0 1 .82-.2c.58-.1.91.1.96.45z"/></svg>